# xmcd
#
# Track frame offsets: 
#        150
#        14744
#        29049
#        41892
#        59016
#        75760
#        90050
#        107127
#        122037
#        137449
#        153449
#        168929
#        183664
#        200364
#        214059
#        230474
#        243279
#        258782
#
# Disc length: 3662 seconds
#
# Revision: 0
# Processed by: cddbd v1.5.2PL0 Copyright (c) Steve Scherf et al.
# Submitted via: ExactAudioCopyFreeDBPlugin 1.0
#
DISCID=ec0e4c12
DTITLE=Thomas Rhett - Tangled Up Deluxe
DYEAR=2016
DGENRE=Country
TTITLE0=Anthem
TTITLE1=Crash and Burn
TTITLE2=South Side
TTITLE3=Die a Happy Man
TTITLE4=Vacation
TTITLE5=Like It's the Last Time
TTITLE6=T-Shirt
TTITLE7=Single Girl
TTITLE8=The Day You Stop Lookin' Back
TTITLE9=Tangled
TTITLE10=Playing With Fire (feat. Jordin Sparks)
TTITLE11=I Feel Good (feat. LunchMoney Lewis)
TTITLE12=Learned It from the Radio
TTITLE13=Star of the Show
TTITLE14=American Spirit
TTITLE15=Background Music
TTITLE16=Playing with Fire (feat. Danielle Bradbery)
TTITLE17=Die a Happy Man (feat. Tori Kelly) [The Remix]
EXTD=
EXTT0=
EXTT1=
EXTT2=
EXTT3=
EXTT4=
EXTT5=
EXTT6=
EXTT7=
EXTT8=
EXTT9=
EXTT10=
EXTT11=
EXTT12=
EXTT13=
EXTT14=
EXTT15=
EXTT16=
EXTT17=
PLAYORDER=
